<?xml version="1.0" encoding="utf-8"?>
<!-- Generator: Adobe Illustrator 24.3.0, SVG Export Plug-In . SVG Version: 6.00 Build 0)  -->
<svg version="1.1" id="Layer_1" xmlns="http://www.w3.org/2000/svg" xmlns:xlink="http://www.w3.org/1999/xlink" x="0px" y="0px"
	 viewBox="0 0 595.28 595.28" style="enable-background:new 0 0 595.28 595.28;" xml:space="preserve">
<rect y="-5.5" style="fill:#010202;" width="600.77" height="600.77"/>
<g>
	<defs>
		<rect id="SVGID_1_" x="81.97" y="149.04" width="436.84" height="291.7"/>
	</defs>
	<clipPath id="SVGID_2_">
		<use xlink:href="#SVGID_1_"  style="overflow:visible;"/>
	</clipPath>
	<path style="clip-path:url(#SVGID_2_);fill:#FFFFFF;" d="M498.36,372.31c-3.93,0-7.54-1.44-10.18-5.29v-13.15
		c2.65-3.77,6.25-5.21,10.18-5.21c6.57,0,11.22,5.53,11.22,11.78C509.59,366.78,504.94,372.31,498.36,372.31 M499.73,340.64
		c-4.57,0-8.5,1.28-11.54,3.53v-21.65h-9.3v56.92h9.3v-2.65c3.05,2.24,6.98,3.53,11.54,3.53c10.58,0,19.08-8.82,19.08-19.88
		C518.81,349.46,510.31,340.64,499.73,340.64 M468.78,341.52h-9.22v25.09c-2.89,3.61-6.49,5.61-9.86,5.61
		c-5.77,0-9.3-3.77-9.3-10.34v-20.36h-9.22v20.92c0,10.98,6.65,18.2,16.59,18.2c4.65,0,8.5-1.6,11.79-4.41v3.21h9.22V341.52z
		 M421.88,322.52h-9.3v56.92h9.3V322.52z M377.31,371.35c-10.66,0-18.6-7.86-18.6-19.16c0-11.3,7.94-19.16,18.6-19.16
		c8.58,0,14.51,4.81,16.6,13.07h9.94c-2.56-13.47-12.83-22.29-26.54-22.29c-15.71,0-28.38,11.95-28.38,28.38
		s12.67,28.38,28.38,28.38c13.71,0,23.97-8.82,26.54-22.29h-9.94C391.82,366.54,385.89,371.35,377.31,371.35 M323.2,372.23
		c-6.57,0-10.98-5.21-10.98-11.7c0-6.41,4.41-11.46,10.98-11.46c6.49,0,10.9,5.05,10.9,11.46
		C334.1,367.02,329.69,372.23,323.2,372.23 M323.2,340.64c-11.54,0-20.2,8.42-20.2,19.88c0,11.54,8.66,20.12,20.2,20.12
		c11.46,0,20.12-8.58,20.12-20.12C343.32,349.06,334.66,340.64,323.2,340.64 M298.26,371.11c-2,0.56-4.33,0.96-6.41,0.96
		c-4.49,0-7.22-2.16-7.22-7.21V349.3h14.03v-7.78h-14.03v-13.87h-9.22v13.87h-8.66v7.78h8.66v15.55c0,9.78,5.61,15.79,14.67,15.79
		c3.29,0,5.21-0.32,9.46-1.6L298.26,371.11z M243.19,372.31c-3.93,0-7.54-1.44-10.18-5.29v-13.07c2.65-3.85,6.25-5.29,10.18-5.29
		c6.57,0,11.22,5.53,11.22,11.87C254.41,366.78,249.76,372.31,243.19,372.31 M244.55,340.64c-4.57,0-8.5,1.28-11.54,3.53v-2.65h-9.3
		v56.92h9.3V376.8c3.05,2.24,6.97,3.53,11.54,3.53c10.58,0,19.08-8.82,19.08-19.8C263.63,349.46,255.13,340.64,244.55,340.64
		 M218.25,341.44h-9.78l-12.35,28.38l-13.63-28.38h-9.94l18.84,39.28l-7.7,17.64h9.78L218.25,341.44z M155.32,341.52h-9.3v37.92h9.3
		v-23.57c3.29-4.01,7.78-6.09,13.79-6.33v-8.74c-5.77,0-10.34,2-13.79,5.53V341.52z M110.35,371.35c-10.66,0-18.6-7.86-18.6-19.16
		c0-11.3,7.94-19.16,18.6-19.16c8.58,0,14.51,4.81,16.6,13.07h9.94c-2.56-13.47-12.83-22.29-26.54-22.29
		c-15.71,0-28.38,11.95-28.38,28.38s12.67,28.38,28.38,28.38c13.71,0,23.97-8.82,26.54-22.29h-9.94
		C124.86,366.54,118.92,371.35,110.35,371.35"/>
	<path style="clip-path:url(#SVGID_2_);fill:#FFFFFF;" d="M381.59,417.59c-4.73,0-7.89,2.54-7.89,6.36c0,3,2.05,5.05,6.13,5.8
		l3.85,0.75c2.9,0.52,4.17,1.92,4.17,3.78c0,2.64-2.25,4.37-5.77,4.37c-4.08,0-6.49-2.02-7.04-5.48h-2.28
		c0.52,4.79,3.91,7.56,9.23,7.56c4.96,0,8.25-2.67,8.25-6.72c0-3.16-2.25-5.02-6.16-5.77l-3.36-0.65c-2.93-0.52-4.56-1.76-4.56-3.78
		c0-2.58,2.22-4.21,5.58-4.21c3.75,0,5.71,1.76,6.23,4.47h2.28C389.68,419.71,386.06,417.59,381.59,417.59 M361.99,420.2v-2.12
		h-18.81v2.12h8.25v20.05h2.32V420.2H361.99z M330.3,418.08h-2.32v18.19l-14.57-18.19h-1.89v22.17h2.32v-17.96l14.48,17.96h1.99
		V418.08z M284.1,420.2h13.07v-2.12h-15.39v22.17h15.39v-2.12H284.1v-7.83h11.77v-2.15H284.1V420.2z M268.84,418.08h-2.54
		l-8.77,19.24l-8.77-19.24h-2.54l10.24,22.33h2.15L268.84,418.08z M221.57,420.2h13.07v-2.12h-15.39v22.17h15.39v-2.12h-13.07v-7.83
		h11.77v-2.15h-11.77V420.2z"/>
	<path style="clip-path:url(#SVGID_2_);fill:#FFFFFF;" d="M293,155.77c-8.13-5.19-16.4-6.73-24.96-6.73
		c-12.9,0-24.11,3.08-33.79,12.2c-7.85,7.43-15,19.35-15,36.59c0,13.18,4.07,25.09,15,35.33c5.47,5.19,16.12,12.9,33.09,12.9
		c6.45,0,16.26-1.4,25.66-7.01v-16.96c-5.33,5.05-14.02,10.8-25.24,10.8c-19.91,0-34.21-15.28-34.21-35.05
		c0-20.61,13.74-35.61,34.07-35.61c5.33,0,15,0.98,25.38,10.37V155.77z"/>
	<path style="clip-path:url(#SVGID_2_);fill:#FFFFFF;" d="M286.14,198.08c8.13-5.19,16.4-6.73,24.96-6.73
		c12.9,0,24.11,3.08,33.79,12.2c7.85,7.43,15,19.35,15,36.59c0,13.18-4.07,25.09-15,35.33c-5.47,5.19-16.12,12.9-33.09,12.9
		c-6.45,0-16.26-1.4-25.66-7.01V264.4c5.33,5.05,14.02,10.8,25.24,10.8c19.91,0,34.21-15.28,34.21-35.05
		c0-20.61-13.74-35.61-34.07-35.61c-5.33,0-15,0.98-25.38,10.37V198.08z"/>
</g>
</svg>
